<?xml version="1.0" encoding="UTF-8" standalone="no"?>
<!-- Created with Inkscape (http://www.inkscape.org/) -->

<svg
   width="49.965405mm"
   height="47.728889mm"
   viewBox="0 0 49.965405 47.728889"
   version="1.1"
   id="svg1"
   inkscape:export-filename="addperson.svg"
   inkscape:export-xdpi="96"
   inkscape:export-ydpi="96"
   xmlns:inkscape="http://www.inkscape.org/namespaces/inkscape"
   xmlns:sodipodi="http://sodipodi.sourceforge.net/DTD/sodipodi-0.dtd"
   xmlns="http://www.w3.org/2000/svg"
   xmlns:svg="http://www.w3.org/2000/svg">
  <sodipodi:namedview
     id="namedview1"
     pagecolor="#ffffff"
     bordercolor="#000000"
     borderopacity="0.25"
     inkscape:showpageshadow="2"
     inkscape:pageopacity="0.0"
     inkscape:pagecheckerboard="0"
     inkscape:deskcolor="#d1d1d1"
     inkscape:document-units="mm" />
  <defs
     id="defs1" />
  <g
     inkscape:label="Layer 1"
     inkscape:groupmode="layer"
     id="layer1"
     transform="translate(-65.918619,-65.289183)">
    <g
       id="g5"
       transform="matrix(2.0506104,0,0,2.0506104,-52.645667,-51.533306)">
      <path
         d="m 76.520545,56.969616 c 0.573839,0 1.035811,0.461972 1.035811,1.035811 v 9.257562 c 0,0.57384 -0.461972,1.035811 -1.035811,1.035811 -0.57384,0 -1.035811,-0.461971 -1.035811,-1.035811 v -9.257562 c 0,-0.573839 0.461971,-1.035811 1.035811,-1.035811 z m 5.66459,5.664588 c 0,0.573839 -0.461972,1.035811 -1.035811,1.035811 h -9.257562 c -0.57384,0 -1.035812,-0.461972 -1.035812,-1.035811 0,-0.57384 0.461972,-1.035812 1.035812,-1.035812 h 9.257562 c 0.573839,0 1.035811,0.461972 1.035811,1.035812 z m -17.772904,9.18659 h 4.672389 c 3.652639,0 6.593206,2.940568 6.593206,6.593207 V 80.24507 H 57.819022 v -1.831069 c 0,-3.652639 2.940571,-6.593207 6.593209,-6.593207 z m 6.44372,-5.07906 a 4.1075255,4.1075255 0 0 1 -4.107526,4.107525 4.1075255,4.1075255 0 0 1 -4.107525,-4.107525 4.1075255,4.1075255 0 0 1 4.107525,-4.107526 4.1075255,4.1075255 0 0 1 4.107526,4.107526 z" />
    </g>
  </g>
</svg>
