<?xml version="1.0" encoding="UTF-8" standalone="no"?>
<!-- Created with Inkscape (http://www.inkscape.org/) -->

<svg class="flex-shrink-0 w-5 h-5 text-gray-500 transition duration-75 dark:text-gray-400 group-hover:text-gray-900 dark:group-hover:text-white" viewBox="0 0 40.1376 40.137604"
   xmlns="http://www.w3.org/2000/svg"
   xmlns:svg="http://www.w3.org/2000/svg">
   <g transform="translate(-36.771397,-37.548095)">
      <path d="m 68.512614,43.613876 a 2.330575,2.330575 0 0 0 -2.330607,2.330607 2.330575,2.330575 0 0 0 2.330607,2.330607 2.330575,2.330575 0 0 0 2.330607,-2.330607 2.330575,2.330575 0 0 0 -2.330607,-2.330607 z m 0,1.149283 a 1.1652875,1.1814705 0 0 1 1.165303,1.181324 1.1652875,1.1814705 0 0 1 -1.165303,1.181323 1.1652875,1.1814705 0 0 1 -1.165304,-1.181323 1.1652875,1.1814705 0 0 1 1.165304,-1.181324 z M 56.839941,48.27509 a 9.3416138,9.3416138 0 0 0 -9.341548,9.342065 9.3416138,9.3416138 0 0 0 9.341548,9.341549 9.3416138,9.3416138 0 0 0 9.342066,-9.341549 9.3416138,9.3416138 0 0 0 -9.342066,-9.342065 z m 0,2.014347 a 7.3274336,7.3274336 0 0 1 7.327719,7.327718 7.3274336,7.3274336 0 0 1 -7.327719,7.327201 7.3274336,7.3274336 0 0 1 -7.327201,-7.327201 7.3274336,7.3274336 0 0 1 7.327201,-7.327718 z M 46.611625,37.548096 c -5.451469,0 -9.840226,4.388757 -9.840226,9.840226 v 20.457149 c 0,5.451469 4.388757,9.840226 9.840226,9.840226 h 20.457149 c 5.45147,0 9.840227,-4.388757 9.840227,-9.840226 V 47.388322 c 0,-5.451469 -4.388757,-9.840226 -9.840227,-9.840226 z m 1.187525,2.330607 h 18.081583 c 4.818396,0 8.697661,3.879265 8.697661,8.69766 v 18.081584 c 0,4.818395 -3.879265,8.697143 -8.697661,8.697143 H 47.79915 c -4.818396,0 -8.697144,-3.878748 -8.697144,-8.697143 V 48.576363 c 0,-4.818395 3.878748,-8.69766 8.697144,-8.69766 z" />
   </g>
</svg>
